<?xml version="1.0" encoding="UTF-8" standalone="no"?>
<!DOCTYPE svg PUBLIC "-//W3C//DTD SVG 1.1//EN"
 "http://www.w3.org/Graphics/SVG/1.1/DTD/svg11.dtd">
<!-- Generated by graphviz version 2.43.0 (0)
 -->
<!-- Title: reopened Pages: 1 -->
<svg width="440pt" height="519pt"
 viewBox="0.00 0.00 440.00 519.00" xmlns="http://www.w3.org/2000/svg" xmlns:xlink="http://www.w3.org/1999/xlink">
<g id="graph0" class="graph" transform="scale(1 1) rotate(0) translate(4 515)">
<title>reopened</title>
<polygon fill="white" stroke="transparent" points="-4,4 -4,-515 436,-515 436,4 -4,4"/>
<!-- begin_reopened -->
<g id="node1" class="node">
<title>begin_reopened</title>
<ellipse fill="white" stroke="black" cx="277" cy="-493" rx="71.49" ry="18"/>
<text text-anchor="middle" x="277" y="-489.3" font-family="arial" font-size="14.00">begin reopened</text>
</g>
<!-- user_added_request -->
<g id="node2" class="node">
<title>user_added_request</title>
<polygon fill="white" stroke="black" points="277,-438 134,-400 277,-362 420,-400 277,-438"/>
<text text-anchor="middle" x="277" y="-403.8" font-family="arial" font-size="14.00">user added request</text>
<text text-anchor="middle" x="277" y="-388.8" font-family="arial" font-size="14.00">to handle new issue?</text>
</g>
<!-- begin_reopened&#45;&gt;user_added_request -->
<g id="edge1" class="edge">
<title>begin_reopened&#45;&gt;user_added_request</title>
<path fill="none" stroke="black" d="M277,-474.88C277,-467.25 277,-457.83 277,-448.31"/>
<polygon fill="black" stroke="black" points="280.5,-448.02 277,-438.02 273.5,-448.02 280.5,-448.02"/>
</g>
<!-- inform_resolved -->
<g id="node3" class="node">
<title>inform_resolved</title>
<polygon fill="white" stroke="black" points="281,-311 35,-311 35,-273 281,-273 281,-311"/>
<text text-anchor="middle" x="158" y="-295.8" font-family="arial" font-size="14.00">inform user that issue was</text>
<text text-anchor="middle" x="158" y="-280.8" font-family="arial" font-size="14.00">already resolved, set ticket to resolved</text>
</g>
<!-- user_added_request&#45;&gt;inform_resolved -->
<g id="edge2" class="edge">
<title>user_added_request&#45;&gt;inform_resolved</title>
<path fill="none" stroke="black" d="M244.8,-370.31C226.41,-353.94 203.59,-333.61 185.96,-317.91"/>
<polygon fill="black" stroke="black" points="188.06,-315.09 178.26,-311.05 183.4,-320.31 188.06,-315.09"/>
<text text-anchor="middle" x="225" y="-332.8" font-family="arial" font-size="14.00">yes</text>
</g>
<!-- issue_not_resolved -->
<g id="node5" class="node">
<title>issue_not_resolved</title>
<polygon fill="white" stroke="black" points="334,-236 236,-198 334,-160 432,-198 334,-236"/>
<text text-anchor="middle" x="334" y="-201.8" font-family="arial" font-size="14.00">was issue</text>
<text text-anchor="middle" x="334" y="-186.8" font-family="arial" font-size="14.00">not resolved?</text>
</g>
<!-- user_added_request&#45;&gt;issue_not_resolved -->
<g id="edge5" class="edge">
<title>user_added_request&#45;&gt;issue_not_resolved</title>
<path fill="none" stroke="black" d="M286.93,-364.16C296.58,-330.3 311.26,-278.79 321.66,-242.3"/>
<polygon fill="black" stroke="black" points="325.09,-243.02 324.47,-232.44 318.36,-241.1 325.09,-243.02"/>
<text text-anchor="middle" x="320" y="-288.3" font-family="arial" font-size="14.00">no</text>
</g>
<!-- create_new_ticket -->
<g id="node4" class="node">
<title>create_new_ticket</title>
<polygon fill="white" stroke="black" points="218,-217 0,-217 0,-179 218,-179 218,-217"/>
<text text-anchor="middle" x="109" y="-201.8" font-family="arial" font-size="14.00">create new ticket for new request,</text>
<text text-anchor="middle" x="109" y="-186.8" font-family="arial" font-size="14.00">set owner to nobody</text>
</g>
<!-- inform_resolved&#45;&gt;create_new_ticket -->
<g id="edge3" class="edge">
<title>inform_resolved&#45;&gt;create_new_ticket</title>
<path fill="none" stroke="black" d="M148.32,-272.82C141.21,-259.47 131.42,-241.1 123.39,-226.02"/>
<polygon fill="black" stroke="black" points="126.45,-224.32 118.66,-217.14 120.27,-227.61 126.45,-224.32"/>
</g>
<!-- perform_triage -->
<g id="node7" class="node">
<title>perform_triage</title>
<polygon fill="white" stroke="black" points="225.5,-109 124.5,-109 124.5,-73 225.5,-73 225.5,-109"/>
<text text-anchor="middle" x="175" y="-87.3" font-family="arial" font-size="14.00">perform triage</text>
</g>
<!-- create_new_ticket&#45;&gt;perform_triage -->
<g id="edge4" class="edge">
<title>create_new_ticket&#45;&gt;perform_triage</title>
<path fill="none" stroke="black" d="M120.5,-178.71C131.1,-161.85 146.94,-136.64 158.82,-117.74"/>
<polygon fill="black" stroke="black" points="161.93,-119.37 164.29,-109.04 156.01,-115.64 161.93,-119.37"/>
</g>
<!-- user_said_thank_you -->
<g id="node6" class="node">
<title>user_said_thank_you</title>
<polygon fill="white" stroke="black" points="424.5,-109 243.5,-109 243.5,-73 424.5,-73 424.5,-109"/>
<text text-anchor="middle" x="334" y="-87.3" font-family="arial" font-size="14.00">(probably a thank you note)</text>
</g>
<!-- issue_not_resolved&#45;&gt;user_said_thank_you -->
<g id="edge6" class="edge">
<title>issue_not_resolved&#45;&gt;user_said_thank_you</title>
<path fill="none" stroke="black" d="M334,-159.98C334,-146.56 334,-131.65 334,-119.22"/>
<polygon fill="black" stroke="black" points="337.5,-119.04 334,-109.04 330.5,-119.04 337.5,-119.04"/>
<text text-anchor="middle" x="345" y="-130.8" font-family="arial" font-size="14.00">yes</text>
</g>
<!-- issue_not_resolved&#45;&gt;perform_triage -->
<g id="edge8" class="edge">
<title>issue_not_resolved&#45;&gt;perform_triage</title>
<path fill="none" stroke="black" d="M298.32,-173.44C271.83,-155.94 235.9,-132.22 209.66,-114.89"/>
<polygon fill="black" stroke="black" points="211.44,-111.87 201.16,-109.28 207.58,-117.71 211.44,-111.87"/>
<text text-anchor="middle" x="258" y="-130.8" font-family="arial" font-size="14.00">no</text>
</g>
<!-- end_reopened -->
<g id="node8" class="node">
<title>end_reopened</title>
<ellipse fill="white" stroke="black" cx="254" cy="-18" rx="64.99" ry="18"/>
<text text-anchor="middle" x="254" y="-14.3" font-family="arial" font-size="14.00">end reopened</text>
</g>
<!-- user_said_thank_you&#45;&gt;end_reopened -->
<g id="edge7" class="edge">
<title>user_said_thank_you&#45;&gt;end_reopened</title>
<path fill="none" stroke="black" d="M314.63,-72.81C304.19,-63.54 291.16,-51.98 279.86,-41.95"/>
<polygon fill="black" stroke="black" points="282.17,-39.32 272.36,-35.3 277.52,-44.55 282.17,-39.32"/>
</g>
<!-- perform_triage&#45;&gt;end_reopened -->
<g id="edge9" class="edge">
<title>perform_triage&#45;&gt;end_reopened</title>
<path fill="none" stroke="black" d="M194.12,-72.81C204.34,-63.63 217.06,-52.2 228.14,-42.24"/>
<polygon fill="black" stroke="black" points="230.77,-44.58 235.87,-35.3 226.09,-39.38 230.77,-44.58"/>
</g>
</g>
</svg>
