<?xml version="1.0" encoding="UTF-8" standalone="no"?>
<!DOCTYPE svg PUBLIC "-//W3C//DTD SVG 1.1//EN"
 "http://www.w3.org/Graphics/SVG/1.1/DTD/svg11.dtd">
<!-- Generated by graphviz version 2.43.0 (0)
 -->
<!-- Title: state_machine Pages: 1 -->
<svg width="10112pt" height="1581pt"
 viewBox="0.00 0.00 10112.43 1581.34" xmlns="http://www.w3.org/2000/svg" xmlns:xlink="http://www.w3.org/1999/xlink">
<g id="graph0" class="graph" transform="scale(1 1) rotate(0) translate(4 1577.34)">
<title>state_machine</title>
<polygon fill="white" stroke="transparent" points="-4,4 -4,-1577.34 10108.43,-1577.34 10108.43,4 -4,4"/>
<!-- start -->
<g id="node1" class="node">
<title>start</title>
<ellipse fill="black" stroke="black" stroke-width="2" cx="93.34" cy="-1272.34" rx="93.18" ry="93.18"/>
<text text-anchor="middle" x="93.34" y="-1260.44" font-family="Times,serif" font-size="48.00">start</text>
</g>
<!-- new -->
<g id="node2" class="node">
<title>new</title>
<ellipse fill="white" stroke="black" stroke-width="2" cx="1789.3" cy="-1272.34" rx="108" ry="108"/>
<text text-anchor="middle" x="1789.3" y="-1260.44" font-family="Times,serif" font-size="48.00">new</text>
</g>
<!-- start&#45;&gt;new -->
<g id="edge1" class="edge">
<title>start&#45;&gt;new</title>
<path fill="none" stroke="black" stroke-width="2" d="M186.92,-1272.34C474.54,-1272.34 1352.36,-1272.34 1671.09,-1272.34"/>
<polygon fill="black" stroke="black" stroke-width="2" points="1671.27,-1275.84 1681.27,-1272.34 1671.27,-1268.84 1671.27,-1275.84"/>
<text text-anchor="middle" x="931.18" y="-1339.94" font-family="Times,serif" font-size="48.00">event: user submits request</text>
<text text-anchor="middle" x="931.18" y="-1286.94" font-family="Times,serif" font-size="48.00">action: RT creates ticket and sends automatic answer</text>
</g>
<!-- open -->
<g id="node3" class="node">
<title>open</title>
<ellipse fill="white" stroke="black" stroke-width="2" cx="4272.93" cy="-762.34" rx="108" ry="108"/>
<text text-anchor="middle" x="4272.93" y="-750.44" font-family="Times,serif" font-size="48.00">open</text>
</g>
<!-- new&#45;&gt;open -->
<g id="edge2" class="edge">
<title>new&#45;&gt;open</title>
<path fill="none" stroke="black" stroke-width="2" d="M1894.3,-1298.03C2237.99,-1376.69 3356.3,-1582.13 4074.93,-1123.34 4161.85,-1067.85 4213.4,-960.06 4241.82,-876.65"/>
<polygon fill="black" stroke="black" stroke-width="2" points="4245.15,-877.71 4245,-867.12 4238.51,-875.5 4245.15,-877.71"/>
<text text-anchor="middle" x="3033.93" y="-1478.94" font-family="Times,serif" font-size="48.00">event: periodic poll event</text>
<text text-anchor="middle" x="3033.93" y="-1425.94" font-family="Times,serif" font-size="48.00">action: operators on duty group performs triage on ticket (see &quot;triage&quot; flow chart)</text>
</g>
<!-- rejected -->
<g id="node4" class="node">
<title>rejected</title>
<ellipse fill="white" stroke="black" stroke-width="2" cx="1789.3" cy="-873.34" rx="113.75" ry="113.75"/>
<text text-anchor="middle" x="1789.3" y="-861.44" font-family="Times,serif" font-size="48.00">rejected</text>
</g>
<!-- new&#45;&gt;rejected -->
<g id="edge3" class="edge">
<title>new&#45;&gt;rejected</title>
<path fill="none" stroke="black" stroke-width="2" d="M1789.3,-1164.22C1789.3,-1112.69 1789.3,-1050.79 1789.3,-997.36"/>
<polygon fill="black" stroke="black" stroke-width="2" points="1792.8,-997.14 1789.3,-987.14 1785.8,-997.14 1792.8,-997.14"/>
<text text-anchor="middle" x="1733.3" y="-1090.25" font-family="Times,serif" font-size="48.00">event: decision &#45; spam</text>
<text text-anchor="middle" x="1733.3" y="-1037.25" font-family="Times,serif" font-size="48.00">action: set to rejected</text>
</g>
<!-- waiting -->
<g id="node5" class="node">
<title>waiting</title>
<ellipse fill="white" stroke="black" stroke-width="2" cx="1789.3" cy="-579.34" rx="108" ry="108"/>
<text text-anchor="middle" x="1789.3" y="-567.44" font-family="Times,serif" font-size="48.00">waiting</text>
</g>
<!-- open&#45;&gt;waiting -->
<g id="edge4" class="edge">
<title>open&#45;&gt;waiting</title>
<path fill="none" stroke="black" stroke-width="2" d="M4165.12,-754.59C4135.89,-752.66 4104.2,-750.75 4074.93,-749.34 3843.75,-738.22 2216.7,-745.4 1992.93,-686.34 1957.33,-676.94 1920.99,-660.36 1889.09,-643.01"/>
<polygon fill="black" stroke="black" stroke-width="2" points="1890.66,-639.87 1880.22,-638.1 1887.27,-646 1890.66,-639.87"/>
<text text-anchor="middle" x="3033.93" y="-816.94" font-family="Times,serif" font-size="48.00">event: ticket updated, waiting for user input</text>
<text text-anchor="middle" x="3033.93" y="-763.94" font-family="Times,serif" font-size="48.00">action: set to waiting</text>
</g>
<!-- open&#45;&gt;waiting -->
<g id="edge5" class="edge">
<title>open&#45;&gt;waiting</title>
<path fill="none" stroke="black" stroke-width="2" d="M4211.16,-673.66C4176.7,-631.42 4129.55,-585.21 4074.93,-562.34 3861.54,-473 2224.06,-552.66 1992.93,-562.34 1965.13,-563.5 1935.24,-565.56 1907.18,-567.85"/>
<polygon fill="black" stroke="black" stroke-width="2" points="1906.61,-564.39 1896.93,-568.71 1907.19,-571.37 1906.61,-564.39"/>
<text text-anchor="middle" x="3033.93" y="-629.94" font-family="Times,serif" font-size="48.00">event: waited &gt; 7 days for user input</text>
<text text-anchor="middle" x="3033.93" y="-576.94" font-family="Times,serif" font-size="48.00">action: send reminder to user, set ticket to waiting a second time</text>
</g>
<!-- stalled -->
<g id="node6" class="node">
<title>stalled</title>
<ellipse fill="white" stroke="black" stroke-width="2" cx="7413.43" cy="-1429.34" rx="108" ry="108"/>
<text text-anchor="middle" x="7413.43" y="-1417.44" font-family="Times,serif" font-size="48.00">stalled</text>
</g>
<!-- open&#45;&gt;stalled -->
<g id="edge8" class="edge">
<title>open&#45;&gt;stalled</title>
<path fill="none" stroke="black" stroke-width="2" d="M4293.89,-868.46C4325.39,-1023.34 4391.31,-1299.33 4470.93,-1358.34 4700.5,-1528.5 6776.11,-1455.44 7295.18,-1434.34"/>
<polygon fill="black" stroke="black" stroke-width="2" points="7295.46,-1437.83 7305.3,-1433.93 7295.17,-1430.84 7295.46,-1437.83"/>
<text text-anchor="middle" x="5183.43" y="-1534.94" font-family="Times,serif" font-size="48.00">event: 3rd party contacted for help</text>
<text text-anchor="middle" x="5183.43" y="-1481.94" font-family="Times,serif" font-size="48.00">action: inform user, set to stalled</text>
</g>
<!-- resolved -->
<g id="node7" class="node">
<title>resolved</title>
<ellipse fill="white" stroke="black" stroke-width="2" cx="9987.68" cy="-762.34" rx="116.51" ry="116.51"/>
<text text-anchor="middle" x="9987.68" y="-750.44" font-family="Times,serif" font-size="48.00">resolved</text>
</g>
<!-- open&#45;&gt;resolved -->
<g id="edge10" class="edge">
<title>open&#45;&gt;resolved</title>
<path fill="none" stroke="black" stroke-width="2" d="M4341.25,-846.03C4375.79,-882.54 4421.07,-921.67 4470.93,-942.34 5093.59,-1200.42 5312.07,-996 5985.93,-1011.34 7254.49,-1040.21 7572.89,-1057.82 8840.93,-1011.34 9259.55,-995.99 9394.44,-1103.92 9780.93,-942.34 9826.51,-923.28 9869.04,-889.96 9903.47,-857.13"/>
<polygon fill="black" stroke="black" stroke-width="2" points="9905.94,-859.6 9910.69,-850.13 9901.07,-854.58 9905.94,-859.6"/>
<text text-anchor="middle" x="7413.43" y="-1106.94" font-family="Times,serif" font-size="48.00">event: decision &#45; necessary help given to user</text>
<text text-anchor="middle" x="7413.43" y="-1053.94" font-family="Times,serif" font-size="48.00">action: set to resolved</text>
</g>
<!-- open&#45;&gt;resolved -->
<g id="edge11" class="edge">
<title>open&#45;&gt;resolved</title>
<path fill="none" stroke="black" stroke-width="2" d="M4381.06,-762.34C5089.58,-762.34 9095.8,-762.34 9860.54,-762.34"/>
<polygon fill="black" stroke="black" stroke-width="2" points="9860.75,-765.84 9870.75,-762.34 9860.75,-758.84 9860.75,-765.84"/>
<text text-anchor="middle" x="7413.43" y="-829.94" font-family="Times,serif" font-size="48.00">event: user responds issue is solved</text>
<text text-anchor="middle" x="7413.43" y="-776.94" font-family="Times,serif" font-size="48.00">action: set to resolved</text>
</g>
<!-- open&#45;&gt;resolved -->
<g id="edge12" class="edge">
<title>open&#45;&gt;resolved</title>
<path fill="none" stroke="black" stroke-width="2" d="M4380.45,-751.84C4649.3,-725.95 5377.26,-659.61 5985.93,-638.34 7254.04,-594.03 7573.88,-569.97 8840.93,-638.34 9213.67,-658.45 9651.65,-715.11 9861.81,-744.36"/>
<polygon fill="black" stroke="black" stroke-width="2" points="9861.57,-747.86 9871.95,-745.78 9862.53,-740.93 9861.57,-747.86"/>
<text text-anchor="middle" x="7413.43" y="-705.94" font-family="Times,serif" font-size="48.00">event: decision &#45; cannot be fixed</text>
<text text-anchor="middle" x="7413.43" y="-652.94" font-family="Times,serif" font-size="48.00">action: set to resolved</text>
</g>
<!-- open&#45;&gt;resolved -->
<g id="edge13" class="edge">
<title>open&#45;&gt;resolved</title>
<path fill="none" stroke="black" stroke-width="2" d="M4354.83,-691.59C4388.52,-666.05 4429.43,-639.75 4470.93,-624.34 5105.32,-388.78 5310.06,-506.16 5985.93,-472.34 7253.23,-408.92 7576.27,-368.77 8840.93,-472.34 9262.93,-506.9 9386.48,-473.42 9780.93,-627.34 9817.64,-641.67 9854.62,-663.2 9886.9,-684.89"/>
<polygon fill="black" stroke="black" stroke-width="2" points="9885.2,-687.96 9895.43,-690.7 9889.14,-682.18 9885.2,-687.96"/>
<text text-anchor="middle" x="7413.43" y="-539.94" font-family="Times,serif" font-size="48.00">event: decision &#45; cannot be handled with &lt;= 2 weeks effort</text>
<text text-anchor="middle" x="7413.43" y="-486.94" font-family="Times,serif" font-size="48.00">action: set to resolved</text>
</g>
<!-- open&#45;&gt;resolved -->
<g id="edge14" class="edge">
<title>open&#45;&gt;resolved</title>
<path fill="none" stroke="black" stroke-width="2" d="M4311.13,-661.08C4342.52,-590.87 4394.66,-501.78 4470.93,-454.34 5046.23,-96.51 5309.46,-322.95 5985.93,-285.34 7252.86,-214.89 7577.47,-168.08 8840.93,-285.34 9264.15,-324.62 9424.97,-229.07 9780.93,-461.34 9849.28,-505.94 9900.97,-581.97 9935.45,-646.45"/>
<polygon fill="black" stroke="black" stroke-width="2" points="9932.44,-648.25 9940.2,-655.47 9938.63,-644.99 9932.44,-648.25"/>
<text text-anchor="middle" x="7413.43" y="-352.94" font-family="Times,serif" font-size="48.00">event: waited &gt;= 14 days for user input</text>
<text text-anchor="middle" x="7413.43" y="-299.94" font-family="Times,serif" font-size="48.00">action: set to resolved and inform user</text>
</g>
<!-- waiting&#45;&gt;open -->
<g id="edge6" class="edge">
<title>waiting&#45;&gt;open</title>
<path fill="none" stroke="black" stroke-width="2" d="M1857.59,-495.58C1893.3,-457.87 1940.6,-417.39 1992.93,-397.34 2857,-66.25 3280.28,76.77 4074.93,-397.34 4165.14,-451.16 4216.5,-562.16 4244.01,-647.7"/>
<polygon fill="black" stroke="black" stroke-width="2" points="4240.74,-648.99 4247.08,-657.47 4247.42,-646.88 4240.74,-648.99"/>
<text text-anchor="middle" x="3033.93" y="-464.94" font-family="Times,serif" font-size="48.00">event: user responds</text>
<text text-anchor="middle" x="3033.93" y="-411.94" font-family="Times,serif" font-size="48.00">action: RT sets ticket to open, operators on duty group performs triage</text>
</g>
<!-- waiting&#45;&gt;open -->
<g id="edge7" class="edge">
<title>waiting&#45;&gt;open</title>
<path fill="none" stroke="black" stroke-width="2" d="M1858.01,-662.67C1873.21,-682.26 1888.96,-703.28 1902.93,-723.34 1946.47,-785.9 1926.37,-832.18 1992.93,-869.34 2396.9,-1094.87 3626.5,-983.26 4074.93,-869.34 4109.09,-860.66 4143.73,-844.73 4174.24,-827.77"/>
<polygon fill="black" stroke="black" stroke-width="2" points="4176.18,-830.7 4183.15,-822.72 4172.73,-824.6 4176.18,-830.7"/>
<text text-anchor="middle" x="3033.93" y="-1066.94" font-family="Times,serif" font-size="48.00">event: ticket in waiting &gt; 7 days</text>
<text text-anchor="middle" x="3033.93" y="-1013.94" font-family="Times,serif" font-size="48.00">action: RT automatically sets ticket to open, operators on duty group performs triage</text>
</g>
<!-- stalled&#45;&gt;open -->
<g id="edge9" class="edge">
<title>stalled&#45;&gt;open</title>
<path fill="none" stroke="black" stroke-width="2" d="M7305.38,-1423.12C7066.53,-1407.87 6472.76,-1362.23 5985.93,-1261.34 5945.03,-1252.86 5937.11,-1241.26 5895.93,-1234.34 5739.65,-1208.09 4603.17,-1262.65 4470.93,-1175.34 4370.14,-1108.79 4319.58,-975.63 4295.14,-878.44"/>
<polygon fill="black" stroke="black" stroke-width="2" points="4298.5,-877.44 4292.72,-868.56 4291.7,-879.11 4298.5,-877.44"/>
<text text-anchor="middle" x="5183.43" y="-1301.94" font-family="Times,serif" font-size="48.00">event: 3rd party responds</text>
<text text-anchor="middle" x="5183.43" y="-1248.94" font-family="Times,serif" font-size="48.00">action: set to open, preform triage to find suitable handler</text>
</g>
<!-- stalled&#45;&gt;resolved -->
<g id="edge15" class="edge">
<title>stalled&#45;&gt;resolved</title>
<path fill="none" stroke="black" stroke-width="2" d="M7521.42,-1433.15C7958.95,-1447.82 9597.52,-1493.24 9780.93,-1358.34 9928.03,-1250.14 9970.79,-1029.86 9982.72,-889.52"/>
<polygon fill="black" stroke="black" stroke-width="2" points="9986.25,-889.39 9983.56,-879.14 9979.27,-888.83 9986.25,-889.39"/>
<text text-anchor="middle" x="9355.93" y="-1514.94" font-family="Times,serif" font-size="48.00">event: 3rd party solves issue</text>
<text text-anchor="middle" x="9355.93" y="-1461.94" font-family="Times,serif" font-size="48.00">action: inform user, set to resolved</text>
</g>
<!-- stalled&#45;&gt;resolved -->
<g id="edge16" class="edge">
<title>stalled&#45;&gt;resolved</title>
<path fill="none" stroke="black" stroke-width="2" d="M7521.47,-1423.12C7760.33,-1407.87 8354.09,-1362.23 8840.93,-1261.34 8881.82,-1252.86 8889.84,-1241.83 8930.93,-1234.34 9117.2,-1200.37 9623.48,-1280.52 9780.93,-1175.34 9879.3,-1109.62 9932.64,-982.29 9960.18,-886.3"/>
<polygon fill="black" stroke="black" stroke-width="2" points="9963.59,-887.1 9962.92,-876.52 9956.85,-885.2 9963.59,-887.1"/>
<text text-anchor="middle" x="9355.93" y="-1301.94" font-family="Times,serif" font-size="48.00">event: decision &#45; cannot be fixed</text>
<text text-anchor="middle" x="9355.93" y="-1248.94" font-family="Times,serif" font-size="48.00">action: inform user, set to resolved</text>
</g>
<!-- resolved&#45;&gt;open -->
<g id="edge17" class="edge">
<title>resolved&#45;&gt;open</title>
<path fill="none" stroke="black" stroke-width="2" d="M9969.68,-646.82C9946.83,-534.3 9894.99,-367.06 9780.93,-274.34 9450.59,-5.82 9264.65,-131.42 8840.93,-90.34 8015.07,-10.27 4925.09,116.92 4470.93,-231.34 4342.73,-329.64 4297.94,-520.49 4282.3,-644.59"/>
<polygon fill="black" stroke="black" stroke-width="2" points="4278.83,-644.18 4281.09,-654.53 4285.77,-645.02 4278.83,-644.18"/>
<text text-anchor="middle" x="7413.43" y="-157.94" font-family="Times,serif" font-size="48.00">event: user adds input</text>
<text text-anchor="middle" x="7413.43" y="-104.94" font-family="Times,serif" font-size="48.00">action: RT automatically sets ticket to open, operators on duty group investigates reason (see &quot;reopened&quot; flow chart)</text>
</g>
</g>
</svg>
