<?xml version="1.0" encoding="UTF-8" standalone="no"?>
<!DOCTYPE svg PUBLIC "-//W3C//DTD SVG 1.1//EN"
 "http://www.w3.org/Graphics/SVG/1.1/DTD/svg11.dtd">
<!-- Generated by graphviz version 2.43.0 (0)
 -->
<!-- Title: triage Pages: 1 -->
<svg width="490pt" height="1406pt"
 viewBox="0.00 0.00 489.50 1406.00" xmlns="http://www.w3.org/2000/svg" xmlns:xlink="http://www.w3.org/1999/xlink">
<g id="graph0" class="graph" transform="scale(1 1) rotate(0) translate(4 1402)">
<title>triage</title>
<polygon fill="white" stroke="transparent" points="-4,4 -4,-1402 485.5,-1402 485.5,4 -4,4"/>
<!-- begin_triage -->
<g id="node1" class="node">
<title>begin_triage</title>
<ellipse fill="white" stroke="black" cx="230" cy="-1380" rx="56.59" ry="18"/>
<text text-anchor="middle" x="230" y="-1376.3" font-family="arial" font-size="14.00">begin triage</text>
</g>
<!-- duplicate_check -->
<g id="node2" class="node">
<title>duplicate_check</title>
<polygon fill="white" stroke="black" points="230,-1325 125,-1287 230,-1249 335,-1287 230,-1325"/>
<text text-anchor="middle" x="230" y="-1290.8" font-family="arial" font-size="14.00">duplicate of</text>
<text text-anchor="middle" x="230" y="-1275.8" font-family="arial" font-size="14.00">existing ticket?</text>
</g>
<!-- begin_triage&#45;&gt;duplicate_check -->
<g id="edge1" class="edge">
<title>begin_triage&#45;&gt;duplicate_check</title>
<path fill="none" stroke="black" d="M230,-1361.88C230,-1354.25 230,-1344.83 230,-1335.31"/>
<polygon fill="black" stroke="black" points="233.5,-1335.02 230,-1325.02 226.5,-1335.02 233.5,-1335.02"/>
</g>
<!-- merge_tickets -->
<g id="node3" class="node">
<title>merge_tickets</title>
<polygon fill="white" stroke="black" points="237,-1198 139,-1198 139,-1162 237,-1162 237,-1198"/>
<text text-anchor="middle" x="188" y="-1176.3" font-family="arial" font-size="14.00">merge tickets</text>
</g>
<!-- duplicate_check&#45;&gt;merge_tickets -->
<g id="edge2" class="edge">
<title>duplicate_check&#45;&gt;merge_tickets</title>
<path fill="none" stroke="black" d="M217.06,-1253.64C211.16,-1238.9 204.27,-1221.66 198.67,-1207.68"/>
<polygon fill="black" stroke="black" points="201.83,-1206.14 194.86,-1198.16 195.33,-1208.74 201.83,-1206.14"/>
<text text-anchor="middle" x="219" y="-1219.8" font-family="arial" font-size="14.00">yes</text>
</g>
<!-- tag_correctly -->
<g id="node4" class="node">
<title>tag_correctly</title>
<polygon fill="white" stroke="black" points="286.5,-1125 173.5,-1125 173.5,-1087 286.5,-1087 286.5,-1125"/>
<text text-anchor="middle" x="230" y="-1109.8" font-family="arial" font-size="14.00">ensure ticket is</text>
<text text-anchor="middle" x="230" y="-1094.8" font-family="arial" font-size="14.00">tagged correctly</text>
</g>
<!-- duplicate_check&#45;&gt;tag_correctly -->
<g id="edge3" class="edge">
<title>duplicate_check&#45;&gt;tag_correctly</title>
<path fill="none" stroke="black" d="M239.28,-1252.28C244.95,-1227.33 250.35,-1192.51 246,-1162 244.71,-1152.94 242.28,-1143.29 239.7,-1134.64"/>
<polygon fill="black" stroke="black" points="243.01,-1133.52 236.65,-1125.05 236.34,-1135.64 243.01,-1133.52"/>
<text text-anchor="middle" x="256" y="-1176.3" font-family="arial" font-size="14.00">no</text>
</g>
<!-- merge_tickets&#45;&gt;tag_correctly -->
<g id="edge4" class="edge">
<title>merge_tickets&#45;&gt;tag_correctly</title>
<path fill="none" stroke="black" d="M197.95,-1161.94C202.84,-1153.55 208.85,-1143.26 214.34,-1133.85"/>
<polygon fill="black" stroke="black" points="217.37,-1135.6 219.38,-1125.2 211.32,-1132.07 217.37,-1135.6"/>
</g>
<!-- find_handler -->
<g id="node5" class="node">
<title>find_handler</title>
<polygon fill="white" stroke="black" points="336,-1050 124,-1050 124,-1012 336,-1012 336,-1050"/>
<text text-anchor="middle" x="230" y="-1034.8" font-family="arial" font-size="14.00">look up suitable handler</text>
<text text-anchor="middle" x="230" y="-1019.8" font-family="arial" font-size="14.00">using NAISS competence matrix</text>
</g>
<!-- tag_correctly&#45;&gt;find_handler -->
<g id="edge5" class="edge">
<title>tag_correctly&#45;&gt;find_handler</title>
<path fill="none" stroke="black" d="M230,-1086.96C230,-1078.88 230,-1069.18 230,-1060.18"/>
<polygon fill="black" stroke="black" points="233.5,-1060.09 230,-1050.09 226.5,-1060.09 233.5,-1060.09"/>
</g>
<!-- handler_found -->
<g id="node6" class="node">
<title>handler_found</title>
<polygon fill="white" stroke="black" points="230,-975 168,-937 230,-899 292,-937 230,-975"/>
<text text-anchor="middle" x="230" y="-940.8" font-family="arial" font-size="14.00">handler</text>
<text text-anchor="middle" x="230" y="-925.8" font-family="arial" font-size="14.00">found?</text>
</g>
<!-- find_handler&#45;&gt;handler_found -->
<g id="edge6" class="edge">
<title>find_handler&#45;&gt;handler_found</title>
<path fill="none" stroke="black" d="M230,-1011.82C230,-1004.13 230,-994.78 230,-985.35"/>
<polygon fill="black" stroke="black" points="233.5,-985.16 230,-975.16 226.5,-985.16 233.5,-985.16"/>
</g>
<!-- find_handler_chat -->
<g id="node7" class="node">
<title>find_handler_chat</title>
<polygon fill="white" stroke="black" points="247,-848 125,-848 125,-810 247,-810 247,-848"/>
<text text-anchor="middle" x="186" y="-832.8" font-family="arial" font-size="14.00">find ticket handler</text>
<text text-anchor="middle" x="186" y="-817.8" font-family="arial" font-size="14.00">using NAISS chat</text>
</g>
<!-- handler_found&#45;&gt;find_handler_chat -->
<g id="edge8" class="edge">
<title>handler_found&#45;&gt;find_handler_chat</title>
<path fill="none" stroke="black" d="M217.74,-906.47C211.36,-891.1 203.61,-872.42 197.36,-857.37"/>
<polygon fill="black" stroke="black" points="200.57,-855.97 193.5,-848.07 194.1,-858.65 200.57,-855.97"/>
<text text-anchor="middle" x="215" y="-869.8" font-family="arial" font-size="14.00">no</text>
</g>
<!-- ask_permission -->
<g id="node9" class="node">
<title>ask_permission</title>
<polygon fill="white" stroke="black" points="381,-632 169,-632 169,-594 381,-594 381,-632"/>
<text text-anchor="middle" x="275" y="-616.8" font-family="arial" font-size="14.00">ask handler for</text>
<text text-anchor="middle" x="275" y="-601.8" font-family="arial" font-size="14.00">permission to transfer ownership</text>
</g>
<!-- handler_found&#45;&gt;ask_permission -->
<g id="edge7" class="edge">
<title>handler_found&#45;&gt;ask_permission</title>
<path fill="none" stroke="black" d="M240.72,-905.43C246.17,-888.67 252.38,-867.42 256,-848 269.66,-774.68 273.5,-686.61 274.58,-642.35"/>
<polygon fill="black" stroke="black" points="278.08,-642.15 274.8,-632.07 271.08,-642 278.08,-642.15"/>
<text text-anchor="middle" x="276" y="-780.8" font-family="arial" font-size="14.00">yes</text>
</g>
<!-- handler_found_chat -->
<g id="node8" class="node">
<title>handler_found_chat</title>
<polygon fill="white" stroke="black" points="185,-759 123,-721 185,-683 247,-721 185,-759"/>
<text text-anchor="middle" x="185" y="-724.8" font-family="arial" font-size="14.00">handler</text>
<text text-anchor="middle" x="185" y="-709.8" font-family="arial" font-size="14.00">found?</text>
</g>
<!-- find_handler_chat&#45;&gt;handler_found_chat -->
<g id="edge9" class="edge">
<title>find_handler_chat&#45;&gt;handler_found_chat</title>
<path fill="none" stroke="black" d="M185.83,-809.54C185.72,-798.37 185.58,-783.57 185.45,-769.33"/>
<polygon fill="black" stroke="black" points="188.94,-769.09 185.35,-759.12 181.94,-769.15 188.94,-769.09"/>
</g>
<!-- handler_found_chat&#45;&gt;ask_permission -->
<g id="edge10" class="edge">
<title>handler_found_chat&#45;&gt;ask_permission</title>
<path fill="none" stroke="black" d="M203.73,-694.1C213.79,-680.62 226.64,-664.06 239,-650 242.04,-646.55 245.33,-643.01 248.64,-639.57"/>
<polygon fill="black" stroke="black" points="251.33,-641.83 255.85,-632.24 246.34,-636.92 251.33,-641.83"/>
<text text-anchor="middle" x="250" y="-653.8" font-family="arial" font-size="14.00">yes</text>
</g>
<!-- no_handler_found -->
<g id="node13" class="node">
<title>no_handler_found</title>
<polygon fill="white" stroke="black" points="282,-416 0,-416 0,-363 282,-363 282,-416"/>
<text text-anchor="middle" x="141" y="-400.8" font-family="arial" font-size="14.00">set NOBODY as owner, add ticket comment</text>
<text text-anchor="middle" x="141" y="-385.8" font-family="arial" font-size="14.00">that no handler was found, communicate</text>
<text text-anchor="middle" x="141" y="-370.8" font-family="arial" font-size="14.00">that no handler was found in NAISS chat</text>
</g>
<!-- handler_found_chat&#45;&gt;no_handler_found -->
<g id="edge11" class="edge">
<title>handler_found_chat&#45;&gt;no_handler_found</title>
<path fill="none" stroke="black" d="M174.56,-688.99C169.36,-672.29 163.45,-651.23 160,-632 147.01,-559.65 142.9,-473.52 141.6,-426.15"/>
<polygon fill="black" stroke="black" points="145.1,-426 141.35,-416.09 138.1,-426.18 145.1,-426"/>
<text text-anchor="middle" x="160" y="-564.8" font-family="arial" font-size="14.00">no</text>
</g>
<!-- permission_granted -->
<g id="node10" class="node">
<title>permission_granted</title>
<polygon fill="white" stroke="black" points="275,-543 192,-505 275,-467 358,-505 275,-543"/>
<text text-anchor="middle" x="275" y="-508.8" font-family="arial" font-size="14.00">permission</text>
<text text-anchor="middle" x="275" y="-493.8" font-family="arial" font-size="14.00">granted?</text>
</g>
<!-- ask_permission&#45;&gt;permission_granted -->
<g id="edge16" class="edge">
<title>ask_permission&#45;&gt;permission_granted</title>
<path fill="none" stroke="black" d="M275,-593.54C275,-582.37 275,-567.57 275,-553.33"/>
<polygon fill="black" stroke="black" points="278.5,-553.12 275,-543.12 271.5,-553.12 278.5,-553.12"/>
</g>
<!-- add_ticket_todo -->
<g id="node11" class="node">
<title>add_ticket_todo</title>
<polygon fill="white" stroke="black" points="481.5,-408.5 300.5,-408.5 300.5,-370.5 481.5,-370.5 481.5,-408.5"/>
<text text-anchor="middle" x="391" y="-393.3" font-family="arial" font-size="14.00">add a ticket TODO defining</text>
<text text-anchor="middle" x="391" y="-378.3" font-family="arial" font-size="14.00">what needs to be done</text>
</g>
<!-- permission_granted&#45;&gt;add_ticket_todo -->
<g id="edge17" class="edge">
<title>permission_granted&#45;&gt;add_ticket_todo</title>
<path fill="none" stroke="black" d="M301.03,-478.53C320.14,-459.83 345.98,-434.55 365.06,-415.88"/>
<polygon fill="black" stroke="black" points="367.57,-418.32 372.27,-408.82 362.68,-413.32 367.57,-418.32"/>
<text text-anchor="middle" x="354" y="-437.8" font-family="arial" font-size="14.00">yes</text>
</g>
<!-- permission_granted&#45;&gt;no_handler_found -->
<g id="edge20" class="edge">
<title>permission_granted&#45;&gt;no_handler_found</title>
<path fill="none" stroke="black" d="M246.58,-479.93C226.88,-463.24 200.42,-440.83 178.91,-422.61"/>
<polygon fill="black" stroke="black" points="181.13,-419.91 171.24,-416.11 176.61,-425.25 181.13,-419.91"/>
<text text-anchor="middle" x="216" y="-437.8" font-family="arial" font-size="14.00">no</text>
</g>
<!-- switch_owner -->
<g id="node12" class="node">
<title>switch_owner</title>
<polygon fill="white" stroke="black" points="394.5,-326 299.5,-326 299.5,-290 394.5,-290 394.5,-326"/>
<text text-anchor="middle" x="347" y="-304.3" font-family="arial" font-size="14.00">switch owner</text>
</g>
<!-- add_ticket_todo&#45;&gt;switch_owner -->
<g id="edge18" class="edge">
<title>add_ticket_todo&#45;&gt;switch_owner</title>
<path fill="none" stroke="black" d="M381.02,-370.46C375.21,-359.98 367.8,-346.59 361.38,-334.98"/>
<polygon fill="black" stroke="black" points="364.4,-333.21 356.49,-326.15 358.27,-336.6 364.4,-333.21"/>
</g>
<!-- difficult_ticket -->
<g id="node14" class="node">
<title>difficult_ticket</title>
<polygon fill="white" stroke="black" points="240,-253 133,-215 240,-177 347,-215 240,-253"/>
<text text-anchor="middle" x="240" y="-218.8" font-family="arial" font-size="14.00">ticket classified</text>
<text text-anchor="middle" x="240" y="-203.8" font-family="arial" font-size="14.00">&quot;difficult&quot;?</text>
</g>
<!-- switch_owner&#45;&gt;difficult_ticket -->
<g id="edge19" class="edge">
<title>switch_owner&#45;&gt;difficult_ticket</title>
<path fill="none" stroke="black" d="M326.87,-289.88C313.35,-278.38 295.08,-262.85 278.79,-248.99"/>
<polygon fill="black" stroke="black" points="280.87,-246.16 270.98,-242.35 276.33,-251.49 280.87,-246.16"/>
</g>
<!-- no_handler_found&#45;&gt;difficult_ticket -->
<g id="edge12" class="edge">
<title>no_handler_found&#45;&gt;difficult_ticket</title>
<path fill="none" stroke="black" d="M155.82,-362.68C172.04,-334.41 198.25,-288.75 217.12,-255.88"/>
<polygon fill="black" stroke="black" points="220.29,-257.38 222.23,-246.97 214.21,-253.9 220.29,-257.38"/>
</g>
<!-- add_to_discussion_list -->
<g id="node15" class="node">
<title>add_to_discussion_list</title>
<polygon fill="white" stroke="black" points="260,-126 110,-126 110,-73 260,-73 260,-126"/>
<text text-anchor="middle" x="185" y="-110.8" font-family="arial" font-size="14.00">add ticket to</text>
<text text-anchor="middle" x="185" y="-95.8" font-family="arial" font-size="14.00">end&#45;of&#45;weekly&#45;rotation</text>
<text text-anchor="middle" x="185" y="-80.8" font-family="arial" font-size="14.00">discussion list</text>
</g>
<!-- difficult_ticket&#45;&gt;add_to_discussion_list -->
<g id="edge13" class="edge">
<title>difficult_ticket&#45;&gt;add_to_discussion_list</title>
<path fill="none" stroke="black" d="M224.68,-182.38C217.64,-167.86 209.27,-150.57 202.03,-135.64"/>
<polygon fill="black" stroke="black" points="204.97,-133.69 197.46,-126.22 198.67,-136.74 204.97,-133.69"/>
<text text-anchor="middle" x="224" y="-147.8" font-family="arial" font-size="14.00">yes</text>
</g>
<!-- end_triage -->
<g id="node16" class="node">
<title>end_triage</title>
<ellipse fill="white" stroke="black" cx="240" cy="-18" rx="50.09" ry="18"/>
<text text-anchor="middle" x="240" y="-14.3" font-family="arial" font-size="14.00">end triage</text>
</g>
<!-- difficult_ticket&#45;&gt;end_triage -->
<g id="edge15" class="edge">
<title>difficult_ticket&#45;&gt;end_triage</title>
<path fill="none" stroke="black" d="M254.72,-182.18C266.07,-153.49 278.36,-110.2 269,-73 266.52,-63.15 261.86,-53.13 256.99,-44.45"/>
<polygon fill="black" stroke="black" points="259.84,-42.41 251.71,-35.62 253.83,-46 259.84,-42.41"/>
<text text-anchor="middle" x="280" y="-95.8" font-family="arial" font-size="14.00">no</text>
</g>
<!-- add_to_discussion_list&#45;&gt;end_triage -->
<g id="edge14" class="edge">
<title>add_to_discussion_list&#45;&gt;end_triage</title>
<path fill="none" stroke="black" d="M202.71,-72.91C209.08,-63.69 216.27,-53.3 222.62,-44.12"/>
<polygon fill="black" stroke="black" points="225.59,-45.99 228.4,-35.77 219.83,-42 225.59,-45.99"/>
</g>
</g>
</svg>
